# This file uses centimeters as units for non-parametric coordinates.

mtllib temp_candle.mtl
g default
v 0.951057 -2.033430 -0.309017
v 0.809018 -2.033430 -0.587786
v 0.587786 -2.033430 -0.809017
v 0.309017 -2.033430 -0.951057
v 0.000000 -2.033430 -1.000000
v -0.309017 -2.033430 -0.951057
v -0.587785 -2.033430 -0.809017
v -0.809017 -2.033430 -0.587785
v -0.951057 -2.033430 -0.309017
v -1.000000 -2.033430 0.000000
v -0.951057 -2.033430 0.309017
v -0.809017 -2.033430 0.587785
v -0.587785 -2.033430 0.809017
v -0.309017 -2.033430 0.951057
v -0.000000 -2.033430 1.000000
v 0.309017 -2.033430 0.951057
v 0.587785 -2.033430 0.809017
v 0.809017 -2.033430 0.587785
v 0.951057 -2.033430 0.309017
v 1.000000 -2.033430 0.000000
v 0.951057 2.033430 -0.309017
v 0.809018 2.033430 -0.587786
v 0.587786 2.033430 -0.809017
v 0.309017 2.033430 -0.951057
v 0.000000 2.033430 -1.000000
v -0.309017 2.033430 -0.951057
v -0.587785 2.033430 -0.809017
v -0.809017 2.033430 -0.587785
v -0.951057 2.033430 -0.309017
v -1.000000 2.033430 0.000000
v -0.951057 2.033430 0.309017
v -0.809017 2.033430 0.587785
v -0.587785 2.033430 0.809017
v -0.309017 2.033430 0.951057
v -0.000000 2.033430 1.000000
v 0.309017 2.033430 0.951057
v 0.587785 2.033430 0.809017
v 0.809017 2.033430 0.587785
v 0.951057 2.033430 0.309017
v 1.000000 2.033430 0.000000
v 0.000000 -2.033430 0.000000
v 0.158818 2.033430 -0.051603
v 0.135099 2.033430 -0.098155
v 0.098155 2.033430 -0.135099
v 0.051603 2.033430 -0.158818
v 0.000000 2.033430 -0.166992
v -0.051603 2.033430 -0.158818
v -0.098155 2.033430 -0.135099
v -0.135099 2.033430 -0.098155
v -0.158818 2.033430 -0.051603
v -0.166991 2.033430 0.000000
v -0.158818 2.033430 0.051603
v -0.135099 2.033430 0.098155
v -0.098155 2.033430 0.135099
v -0.051603 2.033430 0.158818
v -0.000000 2.033430 0.166992
v 0.051603 2.033430 0.158819
v 0.098155 2.033430 0.135099
v 0.135099 2.033430 0.098155
v 0.158818 2.033430 0.051603
v 0.166992 2.033430 -0.000000
v 0.089646 3.457236 -0.135688
v 0.084397 3.457236 -0.145989
v 0.093110 3.547417 -0.123970
v 0.076223 3.457236 -0.154163
v 0.065922 3.457236 -0.159412
v 0.054504 3.457236 -0.161220
v 0.043086 3.457236 -0.159411
v 0.032785 3.457236 -0.154162
v 0.024610 3.457236 -0.145989
v 0.019361 3.457236 -0.135687
v 0.017553 3.457236 -0.124270
v 0.019361 3.457236 -0.112852
v 0.024610 3.457236 -0.102550
v 0.032784 3.457236 -0.094376
v 0.043085 3.457236 -0.089128
v 0.054505 3.457236 -0.087319
v 0.065924 3.457236 -0.089128
v 0.076224 3.457236 -0.094376
v 0.084398 3.457236 -0.102548
v 0.089646 3.457236 -0.112849
v 0.091454 3.457236 -0.124270
v 0.319813 2.108038 0.232358
v 0.232358 2.108038 0.319813
v 0.122158 2.108038 0.375963
v -0.000000 2.108039 0.395311
v -0.122158 2.108039 0.375963
v -0.232358 2.108038 0.319813
v -0.319813 2.108038 0.232358
v -0.375963 2.108038 0.122158
v -0.395311 2.108038 0.000000
v -0.375963 2.108038 -0.122157
v -0.319813 2.108039 -0.232358
v -0.232358 2.108039 -0.319813
v -0.122158 2.108039 -0.375963
v -0.000000 2.108039 -0.395311
v 0.122158 2.108039 -0.375963
v 0.232358 2.108039 -0.319813
v 0.319813 2.108039 -0.232358
v 0.375962 2.108039 -0.122158
v 0.395311 2.108039 -0.000000
v 0.375963 2.108038 0.122158
v 0.009829 3.097031 -0.107949
v -0.001715 3.097031 -0.085292
v -0.019696 3.097031 -0.067312
v -0.042353 3.097031 -0.055768
v -0.067469 3.097031 -0.051789
v -0.092586 3.097031 -0.055768
v -0.115243 3.097031 -0.067312
v -0.133224 3.097031 -0.085293
v -0.144769 3.097031 -0.107951
v -0.148747 3.097031 -0.133067
v -0.144769 3.097031 -0.158182
v -0.133224 3.097031 -0.180840
v -0.115243 3.097031 -0.198821
v -0.092586 3.097031 -0.210365
v -0.067470 3.097031 -0.214344
v -0.042354 3.097031 -0.210366
v -0.019696 3.097031 -0.198821
v -0.001715 3.097031 -0.180840
v 0.009829 3.097031 -0.158183
v 0.013807 3.097031 -0.133067
v 0.332724 2.260517 -0.051408
v 0.313270 2.260516 0.071423
v 0.256811 2.260516 0.182229
v 0.168874 2.260516 0.270166
v 0.058068 2.260516 0.326625
v -0.064762 2.260517 0.346079
v -0.187592 2.260517 0.326624
v -0.298399 2.260516 0.270165
v -0.386335 2.260516 0.182229
v -0.442794 2.260516 0.071422
v -0.462248 2.260516 -0.051408
v -0.442794 2.260516 -0.174237
v -0.386335 2.260517 -0.285044
v -0.298399 2.260517 -0.372980
v -0.187592 2.260517 -0.429439
v -0.064762 2.260517 -0.448894
v 0.058068 2.260517 -0.429440
v 0.168875 2.260517 -0.372981
v 0.256811 2.260517 -0.285044
v 0.313269 2.260517 -0.174238
v 0.054583 2.613944 -0.118291
v 0.043482 2.613944 -0.048199
v 0.011264 2.613944 0.015033
v -0.038916 2.613944 0.065212
v -0.102147 2.613944 0.097430
v -0.172240 2.613944 0.108532
v -0.242332 2.613944 0.097430
v -0.305563 2.613944 0.065212
v -0.355743 2.613944 0.015032
v -0.387961 2.613944 -0.048200
v -0.399063 2.613944 -0.118291
v -0.387961 2.613944 -0.188383
v -0.355743 2.613944 -0.251615
v -0.305563 2.613944 -0.301795
v -0.242332 2.613944 -0.334013
v -0.172240 2.613944 -0.345114
v -0.102148 2.613944 -0.334013
v -0.038917 2.613944 -0.301795
v 0.011264 2.613944 -0.251615
v 0.043481 2.613944 -0.188384
vt 0.648603 0.107966
vt 0.626409 0.064408
vt 0.591842 0.029841
vt 0.548284 0.007647
vt 0.500000 -0.000000
vt 0.451716 0.007647
vt 0.408159 0.029841
vt 0.373591 0.064409
vt 0.351397 0.107966
vt 0.343750 0.156250
vt 0.351397 0.204534
vt 0.373591 0.248091
vt 0.408159 0.282659
vt 0.451716 0.304853
vt 0.500000 0.312500
vt 0.548284 0.304853
vt 0.591841 0.282659
vt 0.626409 0.248091
vt 0.648603 0.204534
vt 0.656250 0.156250
vt 0.375000 0.312500
vt 0.387500 0.312500
vt 0.400000 0.312500
vt 0.412500 0.312500
vt 0.425000 0.312500
vt 0.437500 0.312500
vt 0.450000 0.312500
vt 0.462500 0.312500
vt 0.475000 0.312500
vt 0.487500 0.312500
vt 0.500000 0.312500
vt 0.512500 0.312500
vt 0.525000 0.312500
vt 0.537500 0.312500
vt 0.550000 0.312500
vt 0.562500 0.312500
vt 0.575000 0.312500
vt 0.587500 0.312500
vt 0.600000 0.312500
vt 0.612500 0.312500
vt 0.625000 0.312500
vt 0.375000 0.688440
vt 0.387500 0.688440
vt 0.400000 0.688440
vt 0.412500 0.688440
vt 0.425000 0.688440
vt 0.437500 0.688440
vt 0.450000 0.688440
vt 0.462500 0.688440
vt 0.475000 0.688440
vt 0.487500 0.688440
vt 0.500000 0.688440
vt 0.512500 0.688440
vt 0.525000 0.688440
vt 0.537500 0.688440
vt 0.550000 0.688440
vt 0.562500 0.688440
vt 0.575000 0.688440
vt 0.587500 0.688440
vt 0.600000 0.688440
vt 0.612500 0.688440
vt 0.625000 0.688440
vt 0.648603 0.795466
vt 0.626409 0.751908
vt 0.591842 0.717341
vt 0.548284 0.695147
vt 0.500000 0.687500
vt 0.451716 0.695147
vt 0.408159 0.717341
vt 0.373591 0.751909
vt 0.351397 0.795466
vt 0.343750 0.843750
vt 0.351397 0.892034
vt 0.373591 0.935591
vt 0.408159 0.970159
vt 0.451716 0.992353
vt 0.500000 1.000000
vt 0.548284 0.992353
vt 0.591841 0.970159
vt 0.626409 0.935591
vt 0.648603 0.892034
vt 0.656250 0.843750
vt 0.500000 0.150000
vt 0.500000 0.837500
vt 0.648603 0.892034
vt 0.626409 0.935591
vt 0.591841 0.970159
vt 0.548284 0.992353
vt 0.500000 1.000000
vt 0.451716 0.992353
vt 0.408159 0.970159
vt 0.373591 0.935591
vt 0.351397 0.892034
vt 0.343750 0.843750
vt 0.351397 0.795466
vt 0.373591 0.751909
vt 0.408159 0.717341
vt 0.451716 0.695147
vt 0.500000 0.687500
vt 0.548284 0.695147
vt 0.591842 0.717341
vt 0.626409 0.751908
vt 0.648603 0.795466
vt 0.656250 0.843750
vt 0.648603 0.892034
vt 0.626409 0.935591
vt 0.591841 0.970159
vt 0.548284 0.992353
vt 0.500000 1.000000
vt 0.451716 0.992353
vt 0.408159 0.970159
vt 0.373591 0.935591
vt 0.351397 0.892034
vt 0.343750 0.843750
vt 0.351397 0.795466
vt 0.373591 0.751909
vt 0.408159 0.717341
vt 0.451716 0.695147
vt 0.500000 0.687500
vt 0.548284 0.695147
vt 0.591842 0.717341
vt 0.626409 0.751908
vt 0.648603 0.795466
vt 0.656250 0.843750
vt 0.626409 0.751908
vt 0.591842 0.717341
vt 0.548284 0.695147
vt 0.500000 0.687500
vt 0.451716 0.695147
vt 0.408159 0.717341
vt 0.373591 0.751908
vt 0.351397 0.795466
vt 0.343750 0.843750
vt 0.351397 0.892034
vt 0.373591 0.935591
vt 0.408159 0.970159
vt 0.451716 0.992353
vt 0.500000 1.000000
vt 0.548284 0.992353
vt 0.591841 0.970159
vt 0.626409 0.935591
vt 0.648603 0.892034
vt 0.656250 0.843750
vt 0.648603 0.795466
vt 0.648603 0.795466
vt 0.626409 0.751908
vt 0.591842 0.717341
vt 0.548284 0.695147
vt 0.500000 0.687500
vt 0.451716 0.695147
vt 0.408159 0.717341
vt 0.373591 0.751909
vt 0.351397 0.795466
vt 0.343750 0.843750
vt 0.351397 0.892034
vt 0.373591 0.935591
vt 0.408159 0.970159
vt 0.451716 0.992353
vt 0.500000 1.000000
vt 0.548284 0.992353
vt 0.591841 0.970159
vt 0.626409 0.935591
vt 0.648603 0.892034
vt 0.656250 0.843750
vt 0.656250 0.843750
vt 0.648603 0.795466
vt 0.626409 0.751908
vt 0.591842 0.717341
vt 0.548284 0.695147
vt 0.500000 0.687500
vt 0.451716 0.695147
vt 0.408159 0.717341
vt 0.373591 0.751908
vt 0.351397 0.795466
vt 0.343750 0.843750
vt 0.351397 0.892034
vt 0.373591 0.935591
vt 0.408159 0.970159
vt 0.451716 0.992353
vt 0.500000 1.000000
vt 0.548284 0.992353
vt 0.591841 0.970159
vt 0.626409 0.935591
vt 0.648603 0.892034
vt 0.656250 0.843750
vt 0.648603 0.795466
vt 0.626409 0.751908
vt 0.591842 0.717341
vt 0.548284 0.695147
vt 0.500000 0.687500
vt 0.451716 0.695147
vt 0.408159 0.717341
vt 0.373591 0.751908
vt 0.351397 0.795466
vt 0.343750 0.843750
vt 0.351397 0.892034
vt 0.373591 0.935591
vt 0.408159 0.970159
vt 0.451716 0.992353
vt 0.500000 1.000000
vt 0.548284 0.992353
vt 0.591841 0.970159
vt 0.626409 0.935591
vt 0.648603 0.892034
vn 0.951057 0.000000 -0.309016
vn 0.809017 0.000000 -0.587785
vn 0.809017 0.000000 -0.587785
vn 0.951057 0.000000 -0.309016
vn 0.587785 0.000000 -0.809017
vn 0.587785 0.000000 -0.809017
vn 0.309017 0.000000 -0.951057
vn 0.309017 0.000000 -0.951057
vn -0.000000 0.000000 -1.000000
vn -0.000000 0.000000 -1.000000
vn -0.309017 0.000000 -0.951056
vn -0.309017 0.000000 -0.951056
vn -0.587785 0.000000 -0.809017
vn -0.587785 0.000000 -0.809017
vn -0.809017 0.000000 -0.587785
vn -0.809017 0.000000 -0.587785
vn -0.951057 0.000000 -0.309017
vn -0.951057 0.000000 -0.309017
vn -1.000000 0.000000 0.000000
vn -1.000000 0.000000 0.000000
vn -0.951057 0.000000 0.309017
vn -0.951057 0.000000 0.309017
vn -0.809017 0.000000 0.587785
vn -0.809017 0.000000 0.587785
vn -0.587785 0.000000 0.809017
vn -0.587785 0.000000 0.809017
vn -0.309017 0.000000 0.951057
vn -0.309017 0.000000 0.951057
vn 0.000000 0.000000 1.000000
vn 0.000000 0.000000 1.000000
vn 0.309017 0.000000 0.951057
vn 0.309017 0.000000 0.951057
vn 0.587785 0.000000 0.809017
vn 0.587785 0.000000 0.809017
vn 0.809017 0.000000 0.587785
vn 0.809017 0.000000 0.587785
vn 0.951057 0.000000 0.309017
vn 0.951057 0.000000 0.309017
vn 1.000000 0.000000 0.000001
vn 1.000000 0.000000 0.000001
vn 0.000000 -1.000000 0.000000
vn 0.000000 -1.000000 0.000000
vn 0.000000 -1.000000 0.000000
vn 0.000000 -1.000000 0.000000
vn 0.000000 -1.000000 0.000000
vn 0.000000 -1.000000 0.000000
vn 0.000000 -1.000000 0.000000
vn 0.000000 -1.000000 0.000000
vn 0.000000 -1.000000 0.000000
vn 0.000000 -1.000000 0.000000
vn 0.000000 -1.000000 0.000000
vn 0.000000 -1.000000 0.000000
vn 0.000000 -1.000000 0.000000
vn 0.000000 -1.000000 0.000000
vn 0.000000 -1.000000 0.000000
vn 0.000000 -1.000000 0.000000
vn 0.000000 -1.000000 0.000000
vn 0.000000 -1.000000 0.000000
vn 0.000000 -1.000000 0.000000
vn 0.000000 -1.000000 0.000000
vn 0.000000 -1.000000 0.000000
vn 0.942421 0.007244 -0.334352
vn 0.777727 0.077179 -0.623846
vn 0.418858 0.908046 0.003245
vn 0.528899 0.178729 -0.829651
vn 0.235355 0.293207 -0.926627
vn -0.057410 0.402030 -0.913825
vn -0.313672 0.492934 -0.811558
vn -0.514792 0.561311 -0.648011
vn -0.656028 0.607616 -0.447694
vn -0.738970 0.633948 -0.228107
vn -0.766522 0.642219 -0.000289
vn -0.739815 0.633082 0.227775
vn -0.657486 0.605818 0.447992
vn -0.516405 0.558478 0.649175
vn -0.314843 0.488958 0.813507
vn -0.057778 0.397006 0.915995
vn 0.235825 0.287556 0.928277
vn 0.529770 0.173261 0.830255
vn 0.778490 0.072879 0.623411
vn 0.942847 0.004874 0.333191
vn 0.999831 -0.018351 -0.000669
vn 0.000000 1.000000 0.000000
vn 0.000000 1.000000 0.000000
vn 0.000000 1.000000 0.000000
vn 0.000000 1.000000 0.000000
vn 0.000000 1.000000 0.000000
vn 0.000000 1.000000 0.000000
vn 0.000000 1.000000 0.000000
vn 0.000000 1.000000 0.000000
vn 0.000000 1.000000 0.000000
vn 0.000000 1.000000 0.000000
vn 0.000000 1.000000 0.000000
vn 0.000000 1.000000 0.000000
vn 0.000000 1.000000 0.000000
vn 0.000000 1.000000 0.000000
vn -0.000000 1.000000 0.000000
vn -0.000000 1.000000 0.000000
vn 0.000000 1.000000 0.000001
vn 0.000000 1.000000 0.000001
vn 0.000000 1.000000 -0.000000
vn 0.000000 1.000000 -0.000000
vn 0.000000 1.000000 -0.000001
vn 0.000000 1.000000 -0.000001
vn 0.000000 1.000000 0.000000
vn 0.000000 1.000000 0.000000
vn -0.000000 1.000000 0.000000
vn -0.000000 1.000000 0.000000
vn -0.000000 1.000000 0.000000
vn -0.000000 1.000000 0.000000
vn 0.000000 1.000000 -0.000000
vn 0.000000 1.000000 -0.000000
vn 0.000000 1.000000 -0.000001
vn 0.000000 1.000000 -0.000001
vn 0.000000 1.000000 -0.000000
vn 0.000000 1.000000 -0.000000
vn -0.000000 1.000000 0.000000
vn -0.000000 1.000000 0.000000
vn -0.000000 1.000000 0.000000
vn -0.000000 1.000000 0.000000
vn -0.000000 1.000000 0.000000
vn -0.000000 1.000000 0.000000
vn 0.295407 -0.950538 -0.095983
vn 0.251288 -0.950538 -0.182571
vn 0.719940 -0.521288 -0.458198
vn 0.857692 -0.460223 -0.229257
vn 0.182571 -0.950538 -0.251289
vn 0.517489 -0.583372 -0.626005
vn 0.095983 -0.950538 -0.295407
vn 0.277701 -0.641117 -0.715438
vn -0.000000 -0.950538 -0.310609
vn 0.032336 -0.688643 -0.724379
vn -0.095984 -0.950538 -0.295407
vn -0.193804 -0.722170 -0.664011
vn -0.182571 -0.950538 -0.251289
vn -0.386846 -0.741108 -0.548735
vn -0.251287 -0.950538 -0.182572
vn -0.539564 -0.746084 -0.390166
vn -0.295404 -0.950538 -0.095985
vn -0.646205 -0.737378 -0.196707
vn -0.310606 -0.950539 -0.000000
vn -0.699192 -0.714532 0.023986
vn -0.295405 -0.950538 0.095985
vn -0.688183 -0.677040 0.260808
vn -0.251287 -0.950538 0.182570
vn -0.602910 -0.626218 0.494319
vn -0.182569 -0.950538 0.251288
vn -0.441357 -0.566719 0.695725
vn -0.095982 -0.950538 0.295407
vn -0.217181 -0.504385 0.835720
vn -0.000002 -0.950538 0.310609
vn 0.044376 -0.444635 0.894612
vn 0.095979 -0.950539 0.295406
vn 0.313729 -0.394655 0.863610
vn 0.182569 -0.950539 0.251286
vn 0.560121 -0.362331 0.744970
vn 0.251287 -0.950539 0.182569
vn 0.755436 -0.353239 0.551851
vn 0.295406 -0.950538 0.095981
vn 0.877602 -0.368973 0.306062
vn 0.310609 -0.950538 -0.000001
vn 0.912839 -0.406781 0.035418
vn 0.658637 0.583110 0.475584
vn 0.483983 0.570726 0.663349
vn 0.262170 0.534094 0.803748
vn 0.000555 0.471594 0.881816
vn -0.284594 0.383433 0.878627
vn -0.563172 0.275243 0.779152
vn -0.795851 0.159071 0.584224
vn -0.947762 0.050262 0.314993
vn -0.999314 -0.036556 0.005866
vn -0.947644 -0.090768 -0.306156
vn -0.801722 -0.106818 -0.588074
vn -0.577682 -0.083517 -0.811978
vn -0.297410 -0.023473 -0.954461
vn 0.010355 0.066623 -0.997724
vn 0.309810 0.175482 -0.934464
vn 0.563592 0.288753 -0.773942
vn 0.742708 0.392777 -0.542320
vn 0.834624 0.477340 -0.274863
vn 0.843381 0.537304 -0.003570
vn 0.780950 0.572155 0.250511
vn 0.815338 0.072632 0.574412
vn 0.953873 0.033215 0.298368
vn 0.935811 -0.203447 0.287868
vn 0.816766 -0.168829 0.551715
vn 0.595515 0.130426 0.792686
vn 0.622633 -0.107566 0.775086
vn 0.317197 0.199496 0.927140
vn 0.362207 -0.022578 0.931824
vn 0.013052 0.270945 0.962506
vn 0.057670 0.078639 0.995234
vn -0.281363 0.336329 0.898731
vn -0.253673 0.183505 0.949724
vn -0.535807 0.389576 0.749094
vn -0.529935 0.277977 0.801185
vn -0.729439 0.427356 0.534121
vn -0.739500 0.351538 0.574074
vn -0.850167 0.448305 0.276114
vn -0.866812 0.399038 0.299006
vn -0.891969 0.452082 -0.003546
vn -0.907934 0.419101 0.003086
vn -0.852489 0.438744 -0.284195
vn -0.863477 0.411652 -0.291461
vn -0.732521 0.408649 -0.544443
vn -0.735210 0.376680 -0.563541
vn -0.537590 0.362851 -0.761141
vn -0.527813 0.314716 -0.788903
vn -0.280854 0.303841 -0.910385
vn -0.254772 0.228865 -0.939528
vn 0.014798 0.236185 -0.971595
vn 0.055881 0.127130 -0.990311
vn 0.317810 0.166626 -0.933399
vn 0.363532 0.022466 -0.931311
vn 0.593537 0.103187 -0.798164
vn 0.628229 -0.071237 -0.774760
vn 0.811640 0.053539 -0.581699
vn 0.823990 -0.143965 -0.548010
vn 0.950976 0.023485 -0.308371
vn 0.940734 -0.190950 -0.280283
vn 0.999850 0.016375 -0.005627
vn 0.977512 -0.210829 0.004621
vn 0.887808 0.460141 -0.008178
vn 0.830562 0.486072 0.271846
vn 0.693440 0.501478 0.517360
vn 0.491974 0.505243 0.709007
vn 0.244173 0.496906 0.832745
vn -0.030060 0.476766 0.878516
vn -0.308131 0.446174 0.840228
vn -0.564377 0.407837 0.717738
vn -0.771988 0.365848 0.519797
vn -0.907668 0.325057 0.265475
vn -0.956916 0.289788 -0.018276
vn -0.916267 0.262847 -0.302270
vn -0.791054 0.245805 -0.560191
vn -0.591847 0.240178 -0.769436
vn -0.334354 0.247678 -0.909320
vn -0.041803 0.268829 -0.962280
vn 0.255116 0.301680 -0.918643
vn 0.522512 0.342053 -0.781013
vn 0.729667 0.384896 -0.565192
vn 0.854740 0.425510 -0.297256
s 1
g pCylinder1
usemtl initialShadingGroup
f 1/21/1 2/22/2 22/43/3 21/42/4
f 2/22/2 3/23/5 23/44/6 22/43/3
f 3/23/5 4/24/7 24/45/8 23/44/6
f 4/24/7 5/25/9 25/46/10 24/45/8
f 5/25/9 6/26/11 26/47/12 25/46/10
f 6/26/11 7/27/13 27/48/14 26/47/12
f 7/27/13 8/28/15 28/49/16 27/48/14
f 8/28/15 9/29/17 29/50/18 28/49/16
f 9/29/17 10/30/19 30/51/20 29/50/18
f 10/30/19 11/31/21 31/52/22 30/51/20
f 11/31/21 12/32/23 32/53/24 31/52/22
f 12/32/23 13/33/25 33/54/26 32/53/24
f 13/33/25 14/34/27 34/55/28 33/54/26
f 14/34/27 15/35/29 35/56/30 34/55/28
f 15/35/29 16/36/31 36/57/32 35/56/30
f 16/36/31 17/37/33 37/58/34 36/57/32
f 17/37/33 18/38/35 38/59/36 37/58/34
f 18/38/35 19/39/37 39/60/38 38/59/36
f 19/39/37 20/40/39 40/61/40 39/60/38
f 20/40/39 1/41/1 21/62/4 40/61/40
s 2
f 2/2/41 1/1/42 41/83/43
f 3/3/44 2/2/41 41/83/43
f 4/4/45 3/3/44 41/83/43
f 5/5/46 4/4/45 41/83/43
f 6/6/47 5/5/46 41/83/43
f 7/7/48 6/6/47 41/83/43
f 8/8/49 7/7/48 41/83/43
f 9/9/50 8/8/49 41/83/43
f 10/10/51 9/9/50 41/83/43
f 11/11/52 10/10/51 41/83/43
f 12/12/53 11/11/52 41/83/43
f 13/13/54 12/12/53 41/83/43
f 14/14/55 13/13/54 41/83/43
f 15/15/56 14/14/55 41/83/43
f 16/16/57 15/15/56 41/83/43
f 17/17/58 16/16/57 41/83/43
f 18/18/59 17/17/58 41/83/43
f 19/19/60 18/18/59 41/83/43
f 20/20/61 19/19/60 41/83/43
f 1/1/42 20/20/61 41/83/43
s 3
f 62/105/62 63/106/63 64/84/64
f 63/106/63 65/107/65 64/84/64
f 65/107/65 66/108/66 64/84/64
f 66/108/66 67/109/67 64/84/64
f 67/109/67 68/110/68 64/84/64
f 68/110/68 69/111/69 64/84/64
f 69/111/69 70/112/70 64/84/64
f 70/112/70 71/113/71 64/84/64
f 71/113/71 72/114/72 64/84/64
f 72/114/72 73/115/73 64/84/64
f 73/115/73 74/116/74 64/84/64
f 74/116/74 75/117/75 64/84/64
f 75/117/75 76/118/76 64/84/64
f 76/118/76 77/119/77 64/84/64
f 77/119/77 78/120/78 64/84/64
f 78/120/78 79/121/79 64/84/64
f 79/121/79 80/122/80 64/84/64
f 80/122/80 81/123/81 64/84/64
f 81/123/81 82/124/82 64/84/64
f 82/124/82 62/105/62 64/84/64
s 4
f 21/81/83 22/80/84 43/86/85 42/85/86
f 22/80/84 23/79/87 44/87/88 43/86/85
f 23/79/87 24/78/89 45/88/90 44/87/88
f 24/78/89 25/77/91 46/89/92 45/88/90
f 25/77/91 26/76/93 47/90/94 46/89/92
f 26/76/93 27/75/95 48/91/96 47/90/94
f 27/75/95 28/74/97 49/92/98 48/91/96
f 28/74/97 29/73/99 50/93/100 49/92/98
f 29/73/99 30/72/101 51/94/102 50/93/100
f 30/72/101 31/71/103 52/95/104 51/94/102
f 31/71/103 32/70/105 53/96/106 52/95/104
f 32/70/105 33/69/107 54/97/108 53/96/106
f 33/69/107 34/68/109 55/98/110 54/97/108
f 34/68/109 35/67/111 56/99/112 55/98/110
f 35/67/111 36/66/113 57/100/114 56/99/112
f 36/66/113 37/65/115 58/101/116 57/100/114
f 37/65/115 38/64/117 59/102/118 58/101/116
f 38/64/117 39/63/119 60/103/120 59/102/118
f 39/63/119 40/82/121 61/104/122 60/103/120
f 40/82/121 21/81/83 42/85/86 61/104/122
s 5
f 42/85/123 43/86/124 99/141/125 100/142/126
f 43/86/124 44/87/127 98/140/128 99/141/125
f 44/87/127 45/88/129 97/139/130 98/140/128
f 45/88/129 46/89/131 96/138/132 97/139/130
f 46/89/131 47/90/133 95/137/134 96/138/132
f 47/90/133 48/91/135 94/136/136 95/137/134
f 48/91/135 49/92/137 93/135/138 94/136/136
f 49/92/137 50/93/139 92/134/140 93/135/138
f 50/93/139 51/94/141 91/133/142 92/134/140
f 51/94/141 52/95/143 90/132/144 91/133/142
f 52/95/143 53/96/145 89/131/146 90/132/144
f 53/96/145 54/97/147 88/130/148 89/131/146
f 54/97/147 55/98/149 87/129/150 88/130/148
f 55/98/149 56/99/151 86/128/152 87/129/150
f 56/99/151 57/100/153 85/127/154 86/128/152
f 57/100/153 58/101/155 84/126/156 85/127/154
f 58/101/155 59/102/157 83/125/158 84/126/156
f 59/102/157 60/103/159 102/144/160 83/125/158
f 60/103/159 61/104/161 101/143/162 102/144/160
f 61/104/161 42/85/123 100/142/126 101/143/162
f 84/126/156 83/125/158 125/167/163 126/168/164
f 85/127/154 84/126/156 126/168/164 127/169/165
f 86/128/152 85/127/154 127/169/165 128/170/166
f 87/129/150 86/128/152 128/170/166 129/171/167
f 88/130/148 87/129/150 129/171/167 130/172/168
f 89/131/146 88/130/148 130/172/168 131/173/169
f 90/132/144 89/131/146 131/173/169 132/174/170
f 91/133/142 90/132/144 132/174/170 133/175/171
f 92/134/140 91/133/142 133/175/171 134/176/172
f 93/135/138 92/134/140 134/176/172 135/177/173
f 94/136/136 93/135/138 135/177/173 136/178/174
f 95/137/134 94/136/136 136/178/174 137/179/175
f 96/138/132 95/137/134 137/179/175 138/180/176
f 97/139/130 96/138/132 138/180/176 139/181/177
f 98/140/128 97/139/130 139/181/177 140/182/178
f 99/141/125 98/140/128 140/182/178 141/183/179
f 100/142/126 99/141/125 141/183/179 142/184/180
f 101/143/162 100/142/126 142/184/180 123/165/181
f 102/144/160 101/143/162 123/165/181 124/166/182
f 83/125/158 102/144/160 124/166/182 125/167/163
f 104/146/183 103/145/184 81/123/185 80/122/186
f 105/147/187 104/146/183 80/122/186 79/121/188
f 106/148/189 105/147/187 79/121/188 78/120/190
f 107/149/191 106/148/189 78/120/190 77/119/192
f 108/150/193 107/149/191 77/119/192 76/118/194
f 109/151/195 108/150/193 76/118/194 75/117/196
f 110/152/197 109/151/195 75/117/196 74/116/198
f 111/153/199 110/152/197 74/116/198 73/115/200
f 112/154/201 111/153/199 73/115/200 72/114/202
f 113/155/203 112/154/201 72/114/202 71/113/204
f 114/156/205 113/155/203 71/113/204 70/112/206
f 115/157/207 114/156/205 70/112/206 69/111/208
f 116/158/209 115/157/207 69/111/208 68/110/210
f 117/159/211 116/158/209 68/110/210 67/109/212
f 118/160/213 117/159/211 67/109/212 66/108/214
f 119/161/215 118/160/213 66/108/214 65/107/216
f 120/162/217 119/161/215 65/107/216 63/106/218
f 121/163/219 120/162/217 63/106/218 62/105/220
f 122/164/221 121/163/219 62/105/220 82/124/222
f 103/145/184 122/164/221 82/124/222 81/123/185
f 124/166/182 123/165/181 143/185/223 144/186/224
f 125/167/163 124/166/182 144/186/224 145/187/225
f 126/168/164 125/167/163 145/187/225 146/188/226
f 127/169/165 126/168/164 146/188/226 147/189/227
f 128/170/166 127/169/165 147/189/227 148/190/228
f 129/171/167 128/170/166 148/190/228 149/191/229
f 130/172/168 129/171/167 149/191/229 150/192/230
f 131/173/169 130/172/168 150/192/230 151/193/231
f 132/174/170 131/173/169 151/193/231 152/194/232
f 133/175/171 132/174/170 152/194/232 153/195/233
f 134/176/172 133/175/171 153/195/233 154/196/234
f 135/177/173 134/176/172 154/196/234 155/197/235
f 136/178/174 135/177/173 155/197/235 156/198/236
f 137/179/175 136/178/174 156/198/236 157/199/237
f 138/180/176 137/179/175 157/199/237 158/200/238
f 139/181/177 138/180/176 158/200/238 159/201/239
f 140/182/178 139/181/177 159/201/239 160/202/240
f 141/183/179 140/182/178 160/202/240 161/203/241
f 142/184/180 141/183/179 161/203/241 162/204/242
f 123/165/181 142/184/180 162/204/242 143/185/223
f 144/186/224 143/185/223 122/164/221 103/145/184
f 145/187/225 144/186/224 103/145/184 104/146/183
f 146/188/226 145/187/225 104/146/183 105/147/187
f 147/189/227 146/188/226 105/147/187 106/148/189
f 148/190/228 147/189/227 106/148/189 107/149/191
f 149/191/229 148/190/228 107/149/191 108/150/193
f 150/192/230 149/191/229 108/150/193 109/151/195
f 151/193/231 150/192/230 109/151/195 110/152/197
f 152/194/232 151/193/231 110/152/197 111/153/199
f 153/195/233 152/194/232 111/153/199 112/154/201
f 154/196/234 153/195/233 112/154/201 113/155/203
f 155/197/235 154/196/234 113/155/203 114/156/205
f 156/198/236 155/197/235 114/156/205 115/157/207
f 157/199/237 156/198/236 115/157/207 116/158/209
f 158/200/238 157/199/237 116/158/209 117/159/211
f 159/201/239 158/200/238 117/159/211 118/160/213
f 160/202/240 159/201/239 118/160/213 119/161/215
f 161/203/241 160/202/240 119/161/215 120/162/217
f 162/204/242 161/203/241 120/162/217 121/163/219
f 143/185/223 162/204/242 121/163/219 122/164/221
